<?xml version="1.0" encoding="iso-8859-1"?>
<!-- Generator: Adobe Illustrator 16.0.0, SVG Export Plug-In . SVG Version: 6.00 Build 0)  -->
<!DOCTYPE svg PUBLIC "-//W3C//DTD SVG 1.1//EN" "http://www.w3.org/Graphics/SVG/1.1/DTD/svg11.dtd">
<svg version="1.1" id="Capa_1" xmlns="http://www.w3.org/2000/svg" xmlns:xlink="http://www.w3.org/1999/xlink" x="0px" y="0px"
	 width="166.801px" height="166.801px" viewBox="0 0 166.801 166.801" style="enable-background:new 0 0 166.801 166.801;"
	 xml:space="preserve">
<g>
	<g>
		<path d="M129.75,29.472C113.487,1.307,77.331-8.361,49.17,7.882c-28.162,16.26-37.859,52.414-21.59,80.55
			c16.253,28.203,52.414,37.856,80.571,21.599C136.329,93.79,146.003,57.633,129.75,29.472z M36.05,83.57
			c-13.599-23.504-5.502-53.658,18-67.234c23.505-13.548,53.664-5.47,67.25,18.039c13.555,23.5,5.485,53.647-18.033,67.234
			C79.768,115.196,49.619,107.071,36.05,83.57z"/>
		<polygon points="122.975,106.414 97.618,121.074 117.144,154.869 142.494,140.242 		"/>
		<path d="M145.15,144.833l-25.382,14.637c4.062,7.017,13.018,9.407,20.017,5.369C146.796,160.81,149.192,151.848,145.15,144.833z"
			/>
		<rect x="52.661" y="51.53" width="11.554" height="32.859"/>
		<rect x="72.887" y="42.862" width="11.554" height="41.527"/>
		<rect x="93.103" y="34.194" width="11.552" height="50.195"/>
	</g>
</g>
<g>
</g>
<g>
</g>
<g>
</g>
<g>
</g>
<g>
</g>
<g>
</g>
<g>
</g>
<g>
</g>
<g>
</g>
<g>
</g>
<g>
</g>
<g>
</g>
<g>
</g>
<g>
</g>
<g>
</g>
</svg>
