<svg xmlns="http://www.w3.org/2000/svg" version="1.1" xmlns:xlink="http://www.w3.org/1999/xlink" width="512" height="512" x="0" y="0" viewBox="0 0 166.801 166.801" style="enable-background:new 0 0 512 512" xml:space="preserve" class=""><g><path d="M129.75 29.472C113.487 1.307 77.331-8.361 49.17 7.882c-28.162 16.26-37.859 52.414-21.59 80.55 16.253 28.203 52.414 37.856 80.571 21.599 28.178-16.241 37.852-52.398 21.599-80.559zM36.05 83.57c-13.599-23.504-5.502-53.658 18-67.234 23.505-13.548 53.664-5.47 67.25 18.039 13.555 23.5 5.485 53.647-18.033 67.234-23.499 13.587-53.648 5.462-67.217-18.039zM122.975 106.414l-25.357 14.66 19.526 33.795 25.35-14.627zM145.15 144.833l-25.382 14.637c4.062 7.017 13.018 9.407 20.017 5.369 7.011-4.029 9.407-12.991 5.365-20.006z" fill="#ff5300" opacity="1" data-original="#000000" class=""></path><path d="M52.661 51.53h11.554v32.859H52.661zM72.887 42.862h11.554v41.527H72.887zM93.103 34.194h11.552v50.195H93.103z" fill="#ff5300" opacity="1" data-original="#000000" class=""></path></g></svg>