<svg xmlns="http://www.w3.org/2000/svg" version="1.1" xmlns:xlink="http://www.w3.org/1999/xlink" width="512" height="512" x="0" y="0" viewBox="0 0 511.997 511.997" style="enable-background:new 0 0 512 512" xml:space="preserve"><g><linearGradient id="a" x1="-330.652" x2="-330.652" y1="260.63" y2="261.63" gradientTransform="matrix(511.9959 0 0 511.3856 169548.516 -133283.906)" gradientUnits="userSpaceOnUse"><stop stop-opacity="1" stop-color="#ff5d3b" offset="0.029"></stop><stop stop-opacity="1" stop-color="#fe5900" offset="1"></stop></linearGradient><path d="M511.439 190.892c-1.413-4.116-5.325-6.881-9.687-6.881H334.677L265.536 6.204c-3.031-7.864-16.036-7.864-19.067 0l-69.14 177.807H10.232c-4.362 0-8.253 2.765-9.667 6.881a10.228 10.228 0 0 0 3.359 11.407l137.769 108.257-59.29 187.802a10.204 10.204 0 0 0 3.83 11.428 10.172 10.172 0 0 0 12.063-.164L255.992 391.37l157.716 118.252a10.13 10.13 0 0 0 6.124 2.068c2.089 0 4.137-.635 5.919-1.905 3.645-2.56 5.181-7.188 3.85-11.428l-59.31-187.802L508.081 202.3a10.263 10.263 0 0 0 3.358-11.408" style="fill:url(#a);" fill=""></path></g></svg>