<svg xmlns="http://www.w3.org/2000/svg" version="1.1" xmlns:xlink="http://www.w3.org/1999/xlink" width="512" height="512" x="0" y="0" viewBox="0 0 512.005 512.005" style="enable-background:new 0 0 512 512" xml:space="preserve" class=""><g><path d="M511.448 190.886a10.264 10.264 0 0 0-9.687-6.881H334.685L265.545 6.218c-3.072-7.885-16.036-7.885-19.087 0l-69.14 177.787H10.241a10.3 10.3 0 0 0-9.687 6.861 10.295 10.295 0 0 0 3.359 11.407L141.702 310.55l-59.31 187.802a10.284 10.284 0 0 0 3.85 11.448 10.17 10.17 0 0 0 12.063-.164l157.696-118.272 157.696 118.272a10.212 10.212 0 0 0 6.144 2.048c2.089 0 4.137-.614 5.919-1.864a10.254 10.254 0 0 0 3.85-11.448L370.3 310.571l137.789-108.278a10.262 10.262 0 0 0 3.359-11.407zM352.093 298.815c-3.359 2.642-4.731 7.086-3.441 11.141l51.835 164.168-138.342-103.751a10.212 10.212 0 0 0-6.144-2.048c-2.15 0-4.321.696-6.144 2.048L111.535 474.124l51.814-164.147a10.228 10.228 0 0 0-3.42-11.141L39.855 204.505h144.466a10.26 10.26 0 0 0 9.544-6.533l62.136-159.785 62.136 159.764c1.516 3.953 5.325 6.533 9.544 6.533h144.486l-120.074 94.331z" fill="#ffffff" opacity="1" data-original="#000000" class=""></path></g></svg>