<svg xmlns="http://www.w3.org/2000/svg" version="1.1" xmlns:xlink="http://www.w3.org/1999/xlink" width="512" height="512" x="0" y="0" viewBox="0 0 512 512" style="enable-background:new 0 0 512 512" xml:space="preserve" class=""><g><path d="M232.417 320.632a3.5 3.5 0 0 0-6.603-2.325l-16.896 47.98c-4.085 11.773-7.031 21.148-9.009 28.663a7.673 7.673 0 0 1-7.425 5.702h-70.619a7.66 7.66 0 0 1-7.43-5.723c-1.977-7.645-4.942-17.02-9.065-28.662L32.964 161.625c-5.454-15.815-8.83-24.768-13.383-35.48a.976.976 0 0 1 .896-1.356h68.861a.979.979 0 0 1 .964.845 259.42 259.42 0 0 0 7.738 33.383l49.292 163.514c2.704 9.127 2.704 9.127 6.429 23.351a3.5 3.5 0 0 0 3.368 2.614h.018a3.5 3.5 0 0 0 3.376-2.58c2.038-7.47 3.227-11.715 4.118-14.898.894-3.193 1.487-5.31 2.335-8.53l49.296-163.53c4.054-14.344 6.33-23.433 7.515-33.295a.98.98 0 0 1 .964-.874h6.134a3.5 3.5 0 0 0 0-7h-6.134a7.985 7.985 0 0 0-7.914 7.04c-1.137 9.458-3.26 17.928-7.284 32.168l-49.297 163.53-.034.119c-.842 3.202-1.431 5.304-2.322 8.485l-.68 2.431c-.964-3.552-1.638-5.828-3.181-11.035L104.746 157.01a252.337 252.337 0 0 1-7.524-32.43 7.939 7.939 0 0 0-7.884-6.79h-68.86a7.976 7.976 0 0 0-7.34 11.093c4.48 10.543 7.814 19.382 13.218 35.051L98.77 368.603c4.054 11.448 6.961 20.633 8.886 28.079a14.66 14.66 0 0 0 14.208 10.97h70.62a14.677 14.677 0 0 0 14.194-10.92c1.932-7.34 4.827-16.549 8.847-28.135z" fill="#ff5300" opacity="1" data-original="#000000" class=""></path><path d="M461.151 253.641c-13.332-8.419-30.147-14.354-56.249-19.849-10.521-2.14-18.83-3.83-24.799-5.078a3.5 3.5 0 1 0-1.433 6.852c5.986 1.252 14.305 2.944 24.814 5.081 25.215 5.309 41.343 10.964 53.943 18.921 23.6 14.75 35.072 36.467 35.072 66.389 0 24.73-7.865 45.497-22.729 60.038-19.186 18.524-48.45 27.916-86.983 27.916-28.719 0-56.41-6.054-74.107-16.213-16.544-9.266-28.369-23.287-35.143-41.673a3.29 3.29 0 0 0-.054-.136c-2.563-6.152-4.17-12.263-5.928-22.546a4.335 4.335 0 0 1 3.856-5.04l54.994-5.288a4.326 4.326 0 0 1 4.66 3.453 43.115 43.115 0 0 0 8.464 19.607l.066.087c8.921 11.151 24.019 17.293 42.512 17.293 27.952 0 45.317-13.066 45.317-34.099 0-11.995-6.25-22.332-16.274-26.959-7.56-3.599-16.743-6.118-51.715-14.189a3.5 3.5 0 0 0-1.574 6.82c34.36 7.93 43.288 10.361 50.317 13.707 7.553 3.487 12.246 11.389 12.246 20.621 0 16.968-14.325 27.099-38.317 27.099-16.062 0-29.549-5.33-37.012-14.624a36.242 36.242 0 0 1-7.15-16.653 11.239 11.239 0 0 0-12.21-9.131l-15.426 1.483 58.24-99.455a4.475 4.475 0 0 0-4.608-6.673l-64.479 10.901 85.589-173.982a4.475 4.475 0 0 0-5.523-6.19L260.92 84.558a4.475 4.475 0 0 0-2.79 2.967l-62.582 215.868a4.475 4.475 0 0 0 5.195 5.63l61.432-12.57-49.963 171.15a4.475 4.475 0 0 0 8.157 3.516l55.49-94.758a82.312 82.312 0 0 0 29.37 27.427c18.677 10.722 47.671 17.124 77.559 17.124 40.408 0 71.31-10.054 91.861-29.896 16.258-15.904 24.85-38.401 24.85-65.058 0-32.533-12.547-56.19-38.347-72.316z" fill="#ff5300" opacity="1" data-original="#000000" class=""></path><path d="M376.566 121.29a3.5 3.5 0 0 0 3.5 3.5c42.404 0 74.105 12.898 91.725 37.37 7.322 9.666 11.303 18.705 15.21 34.54a.973.973 0 0 1-.15.8.962.962 0 0 1-.691.412l-63.027 6.838a.954.954 0 0 1-1.038-.69c-5.126-20.869-18.927-30.174-44.749-30.174-16.482 0-30.431 6.858-36.402 17.899a3.5 3.5 0 1 0 6.156 3.33c4.748-8.777 16.337-14.23 30.246-14.23 22.622 0 33.617 7.199 37.952 24.844a7.968 7.968 0 0 0 8.59 5.98l63.027-6.838a7.984 7.984 0 0 0 6.884-9.848c-4.164-16.87-8.463-26.575-16.377-37.022-18.942-26.307-52.606-40.212-97.356-40.212a3.5 3.5 0 0 0-3.5 3.5zM357.508 446.709a3.5 3.5 0 0 0-5.858 3.833l14.257 21.789a3.5 3.5 0 0 0 5.857-3.833zM276.861 453.335a3.499 3.499 0 0 0-4.458 2.15l-8.59 24.581a3.5 3.5 0 1 0 6.607 2.31l8.59-24.582a3.5 3.5 0 0 0-2.149-4.459zM150.912 82.555l21.507 14.68a3.5 3.5 0 1 0 3.946-5.78l-21.507-14.681a3.5 3.5 0 1 0-3.946 5.781zM244.2 60.276c.066 0 .133-.002.2-.005a3.5 3.5 0 0 0 3.298-3.692l-1.463-25.998a3.5 3.5 0 0 0-6.99.394l1.464 25.998a3.5 3.5 0 0 0 3.491 3.303z" fill="#ff5300" opacity="1" data-original="#000000" class=""></path></g></svg>