<svg xmlns="http://www.w3.org/2000/svg" version="1.1" xmlns:xlink="http://www.w3.org/1999/xlink" width="512" height="512" x="0" y="0" viewBox="0 0 64 64" style="enable-background:new 0 0 512 512" xml:space="preserve"><g><path d="M52.967 11.226c-11.561-11.448-30.373-11.448-41.934 0-11.51 10.935-11.511 30.613 0 41.548 11.561 11.448 30.373 11.448 41.934 0 11.51-10.935 11.511-30.614 0-41.548zm-40.527 1.42C17.833 7.307 24.917 4.637 32 4.637c1.288 0 2.575.091 3.853.267a34.129 34.129 0 0 1-1.244 4.745c-1.09-.606-1.684-1.244-1.733-1.3-.863-.978-2.358.305-1.516 1.305.058.067.919 1.044 2.537 1.885a37.877 37.877 0 0 1-1.932 4.056c-1.088-.605-1.682-1.242-1.73-1.298-.862-.981-2.36.308-1.516 1.305.054.063.809.925 2.234 1.725a40.602 40.602 0 0 1-2.391 3.448c-1.114-.614-1.719-1.266-1.763-1.316-.862-.984-2.358.312-1.515 1.306.051.059.73.828 2 1.586a42.116 42.116 0 0 1-2.396 2.588c-1.229-.813-1.829-1.665-1.872-1.729-.729-1.082-2.38.016-1.665 1.107.046.07.703 1.039 2.047 2.02a41.875 41.875 0 0 1-3.284 2.672c-.983-1.072-1.358-2.03-1.384-2.102a1.001 1.001 0 0 0-1.276-.603c-1.355.653-.422 2.025 1.004 3.848a40.208 40.208 0 0 1-3.427 2.026c-.551-.921-.727-1.629-.742-1.694a.999.999 0 0 0-1.192-.756c-1.334.489-.742 1.61.137 3.33a37.602 37.602 0 0 1-3.558 1.428c-.383-.862-.478-1.485-.486-1.538a1.003 1.003 0 0 0-1.116-.862c-1.329.383-.902 1.35-.313 2.996a34.568 34.568 0 0 1-3.15.727A27.486 27.486 0 0 1 4.344 32c0-7.31 2.875-14.183 8.097-19.354zM4.964 37.778a36.675 36.675 0 0 0 3.77-.893c.63.803 1.697 2.436 3.002 2.741.924.032 1.366-1.248.61-1.793a8.978 8.978 0 0 1-1.62-1.6 39.784 39.784 0 0 0 3.698-1.518c.613.701 1.39 1.41 2.387 2.04.166.105.35.155.533.155.968.035 1.38-1.349.535-1.845a9.013 9.013 0 0 1-1.603-1.29 42.336 42.336 0 0 0 3.677-2.21c.805.5 2.566 2.21 3.387.786.53-1.159-1.006-1.508-1.668-2.014a43.924 43.924 0 0 0 3.539-2.943c.744.33 1.66.69 2.616.814a1 1 0 0 0 .978-.8c.23-1.24-1.266-1.216-2.037-1.534a43.977 43.977 0 0 0 2.386-2.642c.82.292 1.766.517 2.839.602 1.307.087 1.47-1.868.158-1.994a9.009 9.009 0 0 1-1.654-.298 42.44 42.44 0 0 0 2.303-3.404c.94.186 3.424 1.32 3.703-.383.06-1.417-1.84-1.024-2.672-1.403a39.866 39.866 0 0 0 1.918-4.062c.712.21 1.53.386 2.4.438 1.253-.004 1.343-1.887.078-1.998a8.99 8.99 0 0 1-1.765-.329 36.157 36.157 0 0 0 1.36-5.148c10.125 1.919 19.215 10.726 21.214 20.97-1.76.32-3.51.771-5.233 1.355a8.72 8.72 0 0 1-.332-1.745.996.996 0 0 0-1.077-.917c-1.595.252-.666 2.432-.483 3.362a40.623 40.623 0 0 0-4.116 1.908 8.72 8.72 0 0 1-.331-1.738.994.994 0 0 0-1.077-.916c-1.684.271-.583 2.733-.382 3.667a42.96 42.96 0 0 0-3.451 2.292 8.727 8.727 0 0 1-.303-1.642c-.135-1.318-2.074-1.147-1.994.16.086 1.058.312 1.992.604 2.802a44.095 44.095 0 0 0-2.68 2.374c-.325-.77-.305-2.259-1.546-2.03-1.601.485-.29 2.65.021 3.563a43.723 43.723 0 0 0-2.98 3.517c-.516-.658-.872-2.208-2.034-1.666-1.41.826.29 2.555.801 3.361a41.8 41.8 0 0 0-2.232 3.643 8.952 8.952 0 0 1-1.32-1.605 1.002 1.002 0 0 0-1.382-.298c-1.456 1.067 1.122 3.063 1.753 3.738a39 39 0 0 0-1.53 3.657c-1.003-.525-1.849-2.686-3.04-1.789-1.416 1.243 1.688 3.2 2.38 3.77a35.755 35.755 0 0 0-.894 3.7 27.573 27.573 0 0 1-13.738-7.392c-3.817-3.78-6.374-8.471-7.476-13.576zM51.56 51.354c-6.373 6.31-15.107 8.888-23.413 7.741.194-1.035.436-2.067.73-3.091 1.65.589 2.657 1.013 3.027-.315-.08-1.435-.894-.863-2.419-1.595a36.793 36.793 0 0 1 1.438-3.512c1.442.758 1.953.874 2.387.921 1.167.006 1.36-1.723.216-1.976-.057-.013-.773-.186-1.708-.732a39.644 39.644 0 0 1 2.045-3.387c1.697 1.328 2.314 1.56 2.938 1.663 1.1.016 1.383-1.59.33-1.945-.017-.005-1.003-.363-2.113-1.359a41.665 41.665 0 0 1 2.704-3.253c.994 1.342 1.98 1.998 2.05 2.044a.99.99 0 0 0 .541.16c.953.036 1.38-1.328.552-1.836-.058-.038-.915-.628-1.735-1.838a42.208 42.208 0 0 1 2.62-2.376c.769 1.268 1.551 1.945 1.611 1.996.997.834 2.277-.68 1.291-1.528-.048-.042-.7-.634-1.318-1.726a41.008 41.008 0 0 1 3.491-2.373c.81 1.42 1.686 2.172 1.75 2.226a.991.991 0 0 0 .64.234c.89.035 1.363-1.197.65-1.762-.047-.041-.687-.622-1.3-1.693a38.603 38.603 0 0 1 4.108-1.916c.85 1.609 1.84 2.464 1.909 2.521a.991.991 0 0 0 .64.234c.887.037 1.365-1.197.65-1.761-.047-.041-.688-.623-1.3-1.694 1.587-.53 3.198-.94 4.816-1.235 1.218 8.481-1.686 17.133-7.828 23.163z" fill="#ffffff" opacity="1" data-original="#000000"></path></g></svg>