<svg xmlns="http://www.w3.org/2000/svg" version="1.1" xmlns:xlink="http://www.w3.org/1999/xlink" width="512" height="512" x="0" y="0" viewBox="0 0 77.832 77.832" style="enable-background:new 0 0 512 512" xml:space="preserve" class=""><g><path d="M38.916 0C17.458 0 0 17.458 0 38.916c0 2.489.245 4.923.693 7.284l-.146.175c.07.059.138.109.208.167 3.555 17.819 19.312 31.29 38.161 31.29 21.458 0 38.916-17.458 38.916-38.916S60.374 0 38.916 0zm33.145 25.249c-.052 12.625-11.312 15.317-16.045 15.888 3.945-13.604 2.821-26.663 1.959-32.572a36.084 36.084 0 0 1 14.086 16.684zM54.559 6.658c.653 3.375 3.119 18.577-1.675 34.318-9.122-2.418-10.416-9.061-12.143-18.104-1.169-6.126-2.491-12.99-6.694-19.474a35.626 35.626 0 0 1 20.512 3.26zM30.764 4.005c4.453 6.291 5.793 13.262 6.973 19.441 1.714 8.979 3.346 17.479 14.175 20.446a54.178 54.178 0 0 1-2.877 6.562c-22.46-10.88-36.241-28.358-39.237-32.423 4.988-6.937 12.389-12.024 20.966-14.026zM8.018 20.751c4.195 5.486 17.939 21.856 39.521 32.371a48.662 48.662 0 0 1-2.789 4.147c-5.908-2.934-11.457-3.388-16.834-3.826-7.44-.607-15.128-1.256-24.354-8.571a35.645 35.645 0 0 1 4.456-24.121zM4.647 49.475c8.612 5.83 15.922 6.438 23.021 7.018 5.113.417 9.972.82 15.12 3.232-4.148 4.854-9.563 9.235-16.591 12.709-10.265-3.909-18.289-12.396-21.55-22.959zm25.672 24.25c6.382-3.564 11.38-7.873 15.283-12.574 1.639.906 4.851 3.021 5.688 6.066.497 1.805.046 3.756-1.312 5.803a35.713 35.713 0 0 1-11.061 1.754 35.889 35.889 0 0 1-8.598-1.049zm23.815-2.351c.507-1.685.552-3.351.101-4.983-1.068-3.863-4.598-6.434-6.729-7.677a51.63 51.63 0 0 0 2.823-4.284 91.708 91.708 0 0 0 17.387 5.82 36.085 36.085 0 0 1-13.582 11.124zm15.423-13.851c-6.373-1.342-12.293-3.354-17.74-5.776a57.098 57.098 0 0 0 3.191-7.446c2.686-.195 10.21-1.199 15.299-6.387a16.162 16.162 0 0 0 3.758-6.096 35.86 35.86 0 0 1 .709 7.098 35.65 35.65 0 0 1-5.217 18.607z" fill="#ffffff" opacity="1" data-original="#000000" class=""></path></g></svg>