<svg xmlns="http://www.w3.org/2000/svg" version="1.1" xmlns:xlink="http://www.w3.org/1999/xlink" width="512" height="512" x="0" y="0" viewBox="0 0 60 60" style="enable-background:new 0 0 512 512" xml:space="preserve" class=""><g><path d="M58 51H38.183c.061-.023.128-.044.189-.067 3.1-1.2 5.566-3.651 7.527-7.476A44.556 44.556 0 0 0 50 28.2l2.53-7.591a2.36 2.36 0 0 0-.379-2.2L57.8 2.3A1.727 1.727 0 0 0 56.168 0h-2.7a1.725 1.725 0 0 0-1.628 1.156l-5.325 15.209a2.341 2.341 0 0 0-1.908 1.487l-2.949 7.683c-1.833-.3-3.922-.6-6.172-.853a11 11 0 0 0-20.988.045 58.514 58.514 0 0 0-12.893 3.331 2.576 2.576 0 0 0-1.433 3.288l4.29 11.63A14.3 14.3 0 0 0 11.794 51H2a2 2 0 0 0-2 2v5a2 2 0 0 0 2 2h56a2 2 0 0 0 2-2v-5a2 2 0 0 0-2-2Zm-34.095 0-1.223-12.251a10.829 10.829 0 0 0 4.636 0L26.1 51ZM53.664 2h2.117l-5.4 15.4-1.892-.631Zm-7.188 16.567a.357.357 0 0 1 .449-.209l3.476 1.16a.365.365 0 0 1 .212.184.351.351 0 0 1 .02.272l-2.282 6.846c-.934-.211-2.559-.558-4.683-.94Zm1.458 10.208a42.46 42.46 0 0 1-3.814 13.769c-1.752 3.417-3.808 5.49-6.474 6.524a32.394 32.394 0 0 1-9.525 1.774L28.4 48h.606a1 1 0 1 0 0-2H28.6l.791-7.923A11 11 0 0 0 32.526 36h8.484a1 1 0 0 0 0-2h-6.8a10.976 10.976 0 0 0 1.028-2h6.772a1 1 0 0 0 0-2h-6.2a10.989 10.989 0 0 0 .19-2 11.1 11.1 0 0 0-.077-1.257c5.691.676 10.217 1.627 12.011 2.032ZM25 19a9 9 0 1 1-9 9 9.01 9.01 0 0 1 9-9ZM6.339 42.284 2.046 30.648a.586.586 0 0 1 .332-.746 55.549 55.549 0 0 1 11.688-3.086A10.6 10.6 0 0 0 14.191 30H8.01a1 1 0 1 0 0 2h6.754a10.976 10.976 0 0 0 1.028 2H9.01a1 1 0 1 0 0 2h8.464a11 11 0 0 0 3.131 2.077l1.286 12.881a40.754 40.754 0 0 1-5.12-.635c-.384-.066-.74-.129-1.059-.179a12.175 12.175 0 0 1-9.373-7.86ZM2 58v-5h56v5Z" fill="#ffffff" opacity="1" data-original="#000000" class=""></path><path d="M20.054 28a1 1 0 0 0-1-1H19a.977.977 0 0 0-.974 1 1.023 1.023 0 0 0 1.028 1 1 1 0 0 0 1-1ZM22.9 28.614a1 1 0 1 0-.336-1.939l-.048.017a.979.979 0 0 0-.571 1.275 1.011 1.011 0 0 0 .955.647ZM25.236 31.063l.046.021a.971.971 0 0 0 .411.093.994.994 0 0 0 .9-.585 1.022 1.022 0 0 0-.5-1.34 1 1 0 0 0-.848 1.811ZM20.069 32.931a.985.985 0 0 0 .7.284 1.04 1.04 0 0 0 .735-.3 1 1 0 1 0-1.416-1.415l-.037.037a.978.978 0 0 0 .018 1.394ZM25 34.974a1.023 1.023 0 0 0 1-1.028 1 1 0 0 0-2 0V34a.977.977 0 0 0 1 .974ZM19.011 39a1 1 0 0 0-1-1h-7a1 1 0 1 0 0 2h7a1 1 0 0 0 1-1ZM18 43a1 1 0 0 0-1-1h-3.989a1 1 0 1 0 0 2H17a1 1 0 0 0 1-1ZM39.011 38h-7a1 1 0 0 0 0 2h7a1 1 0 0 0 0-2ZM37.011 42h-5a1 1 0 0 0 0 2h5a1 1 0 0 0 0-2Z" fill="#ffffff" opacity="1" data-original="#000000" class=""></path></g></svg>