<svg xmlns="http://www.w3.org/2000/svg" version="1.1" xmlns:xlink="http://www.w3.org/1999/xlink" width="512" height="512" x="0" y="0" viewBox="0 0 450 450" style="enable-background:new 0 0 512 512" xml:space="preserve" class=""><g><path d="M277.3 297.5c-33.3 0-65-11.5-88.6-35.2-52.5-52.5-45.4-145.2 16-206.5 61.3-61.3 154-68.5 206.5-16s45.4 145.2-16 206.5c-33.8 33.8-77.1 51.2-117.9 51.2zm45.2-282.8c-38.2 0-79 16.4-110.8 48.2-57.4 57.4-64.6 143.7-16 192.4 48.6 48.6 134.9 41.5 192.4-16 57.4-57.4 64.6-143.7 16-192.4-21.7-21.6-50.8-32.2-81.6-32.2z" fill="#ffffff" opacity="1" data-original="#000000" class=""></path><path d="M277.3 268.2c-25.7 0-49.9-8.7-67.8-26.6-41-41-33.9-115 16-164.8 24-24 54.3-39 85.2-42.1 31.3-3.2 59.6 6.1 79.6 26.1 20 20 29.3 48.3 26.1 79.6-3.1 30.9-18.1 61.2-42.1 85.2-28 28-63.8 42.6-97 42.6zM322.6 44c-3.6 0-7.2.2-10.9.6-28.7 2.9-56.8 16.8-79.2 39.2-46 46-53.1 113.6-16 150.7s104.7 30 150.7-16c22.4-22.4 36.3-50.5 39.2-79.2 2.9-28.3-5.4-53.7-23.2-71.5C367.7 52.2 346.5 44 322.6 44z" fill="#ffffff" opacity="1" data-original="#000000" class=""></path><path d="M188.5 165.9c-1.3 0-2.6-.5-3.5-1.5-2-2-2-5.1 0-7.1L306.2 36.2c2-2 5.1-2 7.1 0s2 5.1 0 7.1L192 164.5c-.9.9-2.2 1.4-3.5 1.4zM193.4 211.8c-1.3 0-2.6-.5-3.5-1.5-2-2-2-5.1 0-7.1L352.1 41c2-2 5.1-2 7.1 0s2 5.1 0 7.1L196.9 210.4c-1 .9-2.2 1.4-3.5 1.4zM213 243c-1.3 0-2.6-.5-3.5-1.5-2-2-2-5.1 0-7.1L383.2 60.7c2-2 5.1-2 7.1 0s2 5.1 0 7.1L216.6 241.5c-1 1-2.3 1.5-3.6 1.5zM244.2 262.6c-1.3 0-2.6-.5-3.5-1.5-2-2-2-5.1 0-7.1L402.9 91.8c2-2 5.1-2 7.1 0s2 5.1 0 7.1L247.7 261.2c-1 .9-2.3 1.4-3.5 1.4zM290.1 267.5c-1.3 0-2.6-.5-3.5-1.5-2-2-2-5.1 0-7.1l121.2-121.2c2-2 5.1-2 7.1 0s2 5.1 0 7.1L293.6 266c-1 1-2.2 1.5-3.5 1.5z" fill="#ffffff" opacity="1" data-original="#000000" class=""></path><path d="M401.5 156.1c-1.3 0-2.6-.5-3.5-1.5L296.4 53.1c-2-2-2-5.1 0-7.1s5.1-2 7.1 0L405 147.6c2 2 2 5.1 0 7.1-1 .9-2.3 1.4-3.5 1.4zM393.1 198.5c-1.3 0-2.6-.5-3.5-1.5L253.9 61.4c-2-2-2-5.1 0-7.1s5.1-2 7.1 0L396.6 190c2 2 2 5.1 0 7.1-.9.9-2.2 1.4-3.5 1.4zM370.8 227c-1.3 0-2.6-.5-3.5-1.5L225.5 83.7c-2-2-2-5.1 0-7.1s5.1-2 7.1 0l141.8 141.8c2 2 2 5.1 0 7.1-1 1-2.3 1.5-3.6 1.5zM342.3 249.3c-1.3 0-2.6-.5-3.5-1.5L203.2 112.2c-2-2-2-5.1 0-7.1s5.1-2 7.1 0l135.6 135.6c2 2 2 5.1 0 7.1-1 1-2.3 1.5-3.6 1.5zM299.9 257.7c-1.3 0-2.6-.5-3.5-1.5L194.8 154.6c-2-2-2-5.1 0-7.1s5.1-2 7.1 0l101.6 101.6c2 2 2 5.1 0 7.1-1 1-2.3 1.5-3.6 1.5zM139.9 337.3c-1.3 0-2.6-.5-3.5-1.5-2-2-2-5.1 0-7.1l63.6-63.6c2-2 5.1-2 7.1 0s2 5.1 0 7.1l-63.6 63.6c-1.1 1-2.3 1.5-3.6 1.5zm-21.2-21.2c-1.3 0-2.6-.5-3.5-1.5-2-2-2-5.1 0-7.1l63.6-63.6c2-2 5.1-2 7.1 0s2 5.1 0 7.1l-63.6 63.6c-1.1 1-2.3 1.5-3.6 1.5z" fill="#ffffff" opacity="1" data-original="#000000" class=""></path><path d="M31.8 446.6c-7 0-14.1-2.7-19.4-8-10.7-10.7-10.7-28.2 0-38.9l92.1-92.1c4.9-4.9 12.8-4.9 17.7 0l21.2 21.2c4.9 4.9 4.9 12.8 0 17.7l-92.1 92.1c-5.4 5.4-12.4 8-19.5 8zm81.6-132.7c-.6 0-1.3.2-1.8.7l-92.1 92.1c-6.8 6.8-6.8 17.9 0 24.7s17.9 6.8 24.7 0l92.1-92.1c.6-.6.7-1.4.7-1.8s-.1-1.1-.7-1.8l-21.2-21.2c-.4-.3-1.1-.6-1.7-.6zM138.2 296.6c-.4 0-.7 0-1.1-.1-2.3-.5-3.9-2.6-3.9-4.9 0-.4 0-.7.1-1.1l22-96.1c.6-2.7 3.3-4.4 6-3.8 2.3.5 3.9 2.6 3.9 4.9 0 .4 0 .7-.1 1.1l-22 96.1c-.5 2.3-2.6 3.9-4.9 3.9zM159.4 317.8c-2.3 0-4.3-1.6-4.9-3.9-.1-.4-.1-.8-.1-1.1 0-2.3 1.6-4.3 3.9-4.9l96.1-22c2.7-.6 5.4 1.1 6 3.8.1.4.1.8.1 1.1 0 2.3-1.6 4.3-3.9 4.9l-96.1 22c-.3 0-.7.1-1.1.1z" fill="#ffffff" opacity="1" data-original="#000000" class=""></path><path d="M67.6 420.2c-1.3 0-2.6-.5-3.5-1.5l-31.8-31.8c-.9-.9-1.5-2.2-1.5-3.5s.5-2.6 1.5-3.5L74 338.1c.9-.9 2.2-1.5 3.5-1.5s2.6.5 3.5 1.5l31.8 31.8c2 2 2 5.1 0 7.1L71 418.8c-.8.9-2.1 1.4-3.4 1.4zm-24.7-36.8 24.7 24.7 34.7-34.7-24.7-24.7zM223 446.6c-31.7 0-57.6-25.8-57.6-57.6s25.8-57.6 57.6-57.6c31.7 0 57.6 25.8 57.6 57.6s-25.8 57.6-57.6 57.6zm0-105.1c-26.2 0-47.6 21.3-47.6 47.6s21.3 47.6 47.6 47.6c26.2 0 47.6-21.3 47.6-47.6s-21.4-47.6-47.6-47.6z" fill="#ffffff" opacity="1" data-original="#000000" class=""></path><path d="M188.3 433.5c-1.4 0-2.8-.6-3.8-1.7-1.8-2.1-1.6-5.2.4-7.1 10.3-9 16.1-22.1 16.1-35.7s-5.9-26.7-16.1-35.7c-2.1-1.8-2.3-5-.4-7.1 1.8-2.1 5-2.3 7.1-.4 12.4 10.9 19.5 26.7 19.5 43.2s-7.1 32.3-19.5 43.2c-1 .9-2.1 1.3-3.3 1.3zM257.7 433.5c-1.2 0-2.4-.4-3.3-1.2-12.4-10.9-19.5-26.7-19.5-43.2s7.1-32.3 19.5-43.2c2.1-1.8 5.2-1.6 7.1.4 1.8 2.1 1.6 5.2-.4 7.1-10.3 9-16.1 22.1-16.1 35.7s5.9 26.7 16.1 35.7c2.1 1.8 2.3 5 .4 7.1-1 1-2.4 1.6-3.8 1.6z" fill="#ffffff" opacity="1" data-original="#000000" class=""></path></g></svg>