<svg xmlns="http://www.w3.org/2000/svg" version="1.1" xmlns:xlink="http://www.w3.org/1999/xlink" width="512" height="512" x="0" y="0" viewBox="0 0 448 448" style="enable-background:new 0 0 512 512" xml:space="preserve" class=""><g><path d="M224 213.332c-125.602 0-224-46.797-224-106.664C0 46.801 98.398 0 224 0s224 46.8 224 106.668c0 59.867-98.398 106.664-224 106.664zm0-192c-121.2 0-202.668 44.133-202.668 85.336C21.332 147.868 102.801 192 224 192s202.668-44.133 202.668-85.332c0-41.203-81.469-85.336-202.668-85.336zm0 0" fill="#ffffff" opacity="1" data-original="#000000" class=""></path><path d="M224 352C98.398 352 0 305.2 0 245.332V106.668h21.332v138.664c0 41.203 81.469 85.336 202.668 85.336s202.668-44.133 202.668-85.336V106.668H448v138.664C448 305.199 349.602 352 224 352zm0 0" fill="#ffffff" opacity="1" data-original="#000000" class=""></path></g></svg>