<svg xmlns="http://www.w3.org/2000/svg" version="1.1" xmlns:xlink="http://www.w3.org/1999/xlink" width="512" height="512" x="0" y="0" viewBox="0 0 512 512" style="enable-background:new 0 0 512 512" xml:space="preserve"><g transform="matrix(-1,0,0,1,512.0005003809929,0)"><path d="M512 240.012C512 107.363 404.656 0 271.992 0 155.277 0 55.703 83.492 34.328 194.316L.363 341.645c-1.468 6.406 1.985 11.273 2.164 11.73a.161.161 0 0 0 .028.043L62.5 443.34a15.008 15.008 0 0 0 12.484 6.68H384.32c2.633 0 5.22-.696 7.5-2.012C464.543 406.028 512 327.758 512 240.012zM63.625 200.785c.043-.18.078-.363.113-.547a206.645 206.645 0 0 1 15.543-48.207c48.637 3.102 94.059 9.696 132.707 18.91v138.164c-56.117 13.45-119.425 19.653-178.113 20.72zm226.023-3.246c-10.902 10.871-17.656 25.895-17.656 42.469 0 16.562 6.746 31.578 17.633 42.445-13.313 6.672-29.379 12.91-47.637 18.508V179.039c18.196 5.55 34.25 11.758 47.66 18.5zm42.344 72.473c-16.543 0-30-13.457-30-30s13.457-30.004 30-30.004 30.004 13.46 30.004 30.004-13.46 30-30.004 30zm48.235 150.004H83.012l-40.25-60.371c81.414-2.149 210.215-16.801 278.445-60.622 3.504.637 7.102.989 10.785.989 33.086 0 60.004-26.918 60.004-60 0-33.086-26.918-60.004-60.004-60.004-3.683 0-7.281.351-10.785.988-57.445-36.933-157.418-52.558-225.547-57.879 38.38-56.683 103.742-93.113 176.332-93.113C387.79 30.004 482 124.21 482 240.012c0 20.57-3.05 40.761-8.816 60h-66.188c-24.812 0-45 20.191-45 45.004s20.188 45 45 45h11.902a209.58 209.58 0 0 1-38.671 30zm63.988-60h-37.219c-8.27 0-15-6.73-15-15 0-8.274 6.73-15.012 15-15.012h54.629a211.684 211.684 0 0 1-17.41 30.012zm0 0" fill="#ffffff" opacity="1" data-original="#000000"></path><path d="M451.996 255.012c0 8.285-6.715 15-15 15s-15-6.715-15-15 6.715-15 15-15 15 6.715 15 15zM451.996 195.008c0 8.285-6.715 15-15 15s-15-6.715-15-15 6.715-15 15-15 15 6.715 15 15zm0 0" fill="#ffffff" opacity="1" data-original="#000000"></path></g></svg>